<svg xmlns="http://www.w3.org/2000/svg" xmlns:xlink="http://www.w3.org/1999/xlink" width="40" zoomAndPan="magnify" viewBox="0 0 30 30.000001" height="40" preserveAspectRatio="xMidYMid meet" version="1.0"><defs><clipPath id="6347fff985"><path d="M 1.503906 0.824219 L 28.359375 0.824219 L 28.359375 28.402344 L 1.503906 28.402344 Z M 1.503906 0.824219 " clip-rule="nonzero"/></clipPath></defs><g clip-path="url(#6347fff985)"><path fill="#ffffff" d="M 28.195312 26.941406 L 20.515625 11.496094 C 18.253906 13.519531 16.265625 17.066406 16.375 19.972656 L 18.699219 24.554688 C 18.78125 24.722656 18.925781 24.847656 19.097656 24.914062 L 27.28125 27.957031 C 27.90625 28.1875 28.492188 27.539062 28.195312 26.941406 Z M 14.414062 18.5 C 14.394531 18.53125 14.375 18.5625 14.359375 18.59375 L 11.445312 24.503906 C 11.363281 24.671875 11.21875 24.800781 11.042969 24.867188 L 2.707031 27.96875 C 2.085938 28.199219 1.503906 27.554688 1.789062 26.960938 L 14.164062 1.375 C 14.429688 0.828125 15.210938 0.824219 15.480469 1.371094 L 20.253906 10.96875 C 17.636719 12.839844 15.585938 15.453125 14.414062 18.5 " fill-opacity="1" fill-rule="nonzero"/></g></svg>