<svg xmlns="http://www.w3.org/2000/svg" xmlns:xlink="http://www.w3.org/1999/xlink" width="1260" zoomAndPan="magnify" viewBox="0 0 944.88 531.000006" height="708" preserveAspectRatio="xMidYMid meet" version="1.0"><defs><g/><clipPath id="c491e75288"><rect x="0" width="480" y="0" height="276"/></clipPath></defs><path stroke-linecap="round" transform="matrix(0, 0.74859, -0.74859, 0, 367.232821, 72.250672)" fill="none" stroke-linejoin="miter" d="M 1.997651 2.001691 L 512.978991 2.001691 " stroke="#ffffff" stroke-width="4" stroke-opacity="1" stroke-miterlimit="4"/><path fill="#ffffff" d="M 303.085938 397.050781 L 221.507812 232.96875 C 197.492188 254.453125 176.351562 292.144531 177.53125 323.03125 L 202.214844 371.703125 C 203.101562 373.453125 204.613281 374.800781 206.449219 375.484375 L 293.390625 407.824219 C 300.011719 410.289062 306.234375 403.375 303.085938 397.050781 Z M 156.691406 307.382812 C 156.480469 307.691406 156.289062 308.019531 156.117188 308.371094 L 125.144531 371.136719 C 124.265625 372.921875 122.738281 374.304688 120.875 374.996094 L 32.332031 407.933594 C 25.746094 410.386719 19.539062 403.558594 22.597656 397.234375 L 154.027344 125.476562 C 156.847656 119.644531 165.140625 119.597656 168.027344 125.398438 L 218.71875 227.367188 C 190.921875 247.234375 169.15625 275.003906 156.691406 307.382812 " fill-opacity="1" fill-rule="nonzero"/><g transform="matrix(1, 0, 0, 1, 425, 127)"><g clip-path="url(#c491e75288)"><g fill="#ffffff" fill-opacity="1"><g transform="translate(0.760469, 205.348542)"><g><path d="M 98.25 -24.421875 L 46.671875 -24.421875 L 38.390625 0 L 3.15625 0 L 53.171875 -138.234375 L 92.15625 -138.234375 L 142.171875 0 L 106.53125 0 Z M 89.59375 -50.40625 L 72.46875 -101.015625 L 55.53125 -50.40625 Z M 89.59375 -50.40625 "/></g></g></g><g fill="#ffffff" fill-opacity="1"><g transform="translate(145.874511, 205.348542)"><g><path d="M 95.890625 -70.890625 C 103.898438 -69.179688 110.332031 -65.207031 115.1875 -58.96875 C 120.039062 -52.738281 122.46875 -45.617188 122.46875 -37.609375 C 122.46875 -26.054688 118.429688 -16.898438 110.359375 -10.140625 C 102.285156 -3.378906 91.03125 0 76.59375 0 L 12.203125 0 L 12.203125 -138.234375 L 74.4375 -138.234375 C 88.476562 -138.234375 99.46875 -135.015625 107.40625 -128.578125 C 115.351562 -122.148438 119.328125 -113.421875 119.328125 -102.390625 C 119.328125 -94.253906 117.191406 -87.492188 112.921875 -82.109375 C 108.660156 -76.722656 102.984375 -72.984375 95.890625 -70.890625 Z M 45.875 -82.3125 L 67.9375 -82.3125 C 73.445312 -82.3125 77.675781 -83.523438 80.625 -85.953125 C 83.582031 -88.378906 85.0625 -91.957031 85.0625 -96.6875 C 85.0625 -101.40625 83.582031 -105.007812 80.625 -107.5 C 77.675781 -110 73.445312 -111.25 67.9375 -111.25 L 45.875 -111.25 Z M 70.6875 -27.171875 C 76.332031 -27.171875 80.695312 -28.453125 83.78125 -31.015625 C 86.863281 -33.578125 88.40625 -37.285156 88.40625 -42.140625 C 88.40625 -46.992188 86.796875 -50.796875 83.578125 -53.546875 C 80.367188 -56.304688 75.941406 -57.6875 70.296875 -57.6875 L 45.875 -57.6875 L 45.875 -27.171875 Z M 70.6875 -27.171875 "/></g></g></g><g fill="#ffffff" fill-opacity="1"><g transform="translate(275.630469, 205.348542)"><g><path d="M 45.875 -111.25 L 45.875 -83.296875 L 90.96875 -83.296875 L 90.96875 -57.296875 L 45.875 -57.296875 L 45.875 -26.96875 L 96.875 -26.96875 L 96.875 0 L 12.203125 0 L 12.203125 -138.234375 L 96.875 -138.234375 L 96.875 -111.25 Z M 45.875 -111.25 "/></g></g></g><g fill="#ffffff" fill-opacity="1"><g transform="translate(382.152414, 205.348542)"><g><path d="M 45.875 -25.984375 L 89.984375 -25.984375 L 89.984375 0 L 12.203125 0 L 12.203125 -138.234375 L 45.875 -138.234375 Z M 45.875 -25.984375 "/></g></g></g></g></g></svg>